<?xml version="1.0" encoding="UTF-8" standalone="no"?>
<!-- Created with Inkscape (http://www.inkscape.org/) -->

<svg
   width="400mm"
   height="297mm"
   viewBox="0 0 400 297"
   version="1.1"
   id="svg1"
   inkscape:version="1.4.3 (0d15f75, 2025-12-25)"
   sodipodi:docname="cow svg.svg"
   xmlns:inkscape="http://www.inkscape.org/namespaces/inkscape"
   xmlns:sodipodi="http://sodipodi.sourceforge.net/DTD/sodipodi-0.dtd"
   xmlns="http://www.w3.org/2000/svg"
   xmlns:svg="http://www.w3.org/2000/svg">
  <sodipodi:namedview
     id="namedview1"
     pagecolor="#ffffff"
     bordercolor="#000000"
     borderopacity="0.25"
     inkscape:showpageshadow="2"
     inkscape:pageopacity="0.0"
     inkscape:pagecheckerboard="0"
     inkscape:deskcolor="#d1d1d1"
     inkscape:document-units="mm"
     inkscape:zoom="0.72604517"
     inkscape:cx="397.3582"
     inkscape:cy="340.88788"
     inkscape:window-width="1920"
     inkscape:window-height="1017"
     inkscape:window-x="1912"
     inkscape:window-y="-8"
     inkscape:window-maximized="1"
     inkscape:current-layer="layer1" />
  <defs
     id="defs1" />
  <g
     inkscape:label="Layer 1"
     inkscape:groupmode="layer"
     id="layer1">
    <path
       style="fill:#ff2a2a;stroke-width:0.264583"
       d="m 47.795119,44.062602 -2.126491,9.923627 c 0,0 -13.467781,12.404536 -14.531025,15.594276 -1.063247,3.18974 6.379474,15.59427 12.758949,14.88544 6.379474,-0.70883 18.784009,-4.96182 24.454653,-3.18974 5.670645,1.77208 28.353222,39.340095 29.770883,47.491645 1.417661,8.15155 18.429592,10.63246 18.429592,10.63246 l 7.08831,26.22673 c 0,0 -2.48091,19.84725 -18.07518,21.61933 -15.594273,1.77207 18.42959,3.18973 18.42959,3.18973 0,0 1.41767,0.35442 4.25299,-7.44272 2.83532,-7.79713 4.6074,-32.96062 4.6074,-32.96062 h 10.98687 c 0,0 6.37948,24.10024 0.70883,25.87232 -5.67064,1.77208 -7.0883,12.05012 -7.0883,12.05012 l 24.80906,0.70883 -6.73389,-14.53103 c 0,0 -1.41766,-36.15036 3.54416,-38.27685 4.96181,-2.12649 37.92243,2.12649 47.13723,3.54416 9.2148,1.41766 24.80907,-10.63246 31.89738,-9.56922 7.0883,1.06325 34.02386,9.56922 34.02386,9.56922 0,0 -7.79713,43.59307 -15.23986,45.36515 -7.44272,1.77207 25.16349,2.83532 25.16349,2.83532 l -9.92363,-8.50596 15.23986,-31.18855 c 0,0 10.27804,15.23986 6.02506,25.87232 -4.25299,10.63245 -2.83532,15.23985 -2.83532,15.23985 l 25.51789,-0.35441 -3.18973,-45.36516 c 0,0 -16.3031,-26.22673 -6.02506,-58.478515 C 317.15073,52.56857 295.5314,49.378833 295.5314,49.378833 c 0,0 -2.48091,-14.885443 -40.75776,-10.278044 -38.27685,4.607399 -63.44033,5.316228 -63.44033,5.316228"
       id="path525"
       inkscape:label="silhouette" />
    <path
       style="fill:#ff2a2a;stroke-width:0.264583"
       d="m 97.413258,43.353773 c 0,0 14.176612,-8.151553 2.835322,-8.860383 -11.341289,-0.708832 -17.720764,3.544152 -17.720764,3.544152 0,0 -6.02506,-7.442721 -14.885441,-7.088303 -8.860382,0.354414 -15.594273,-5.670646 -15.594273,-5.670646 0,0 0.354415,10.278044 8.151552,10.632459 7.797136,0.354414 -0.70883,2.480905 -0.70883,2.480905 0,0 -13.467781,-8.15155 -15.948687,-6.733889 -2.480908,1.417661 9.214797,10.632458 9.214797,10.632458 l -5.31623,1.772076 z"
       id="path528"
       inkscape:label="head." />
    <path
       style="fill:#ff2a2a;stroke-width:0.264583"
       d="m 68.705621,81.630615 c 0,0 16.657517,18.07518 16.657517,20.556085 0,2.48091 46.428402,0.70883 46.428402,0.70883 l 1.06325,-59.541757 -35.441532,1.772076 c 0,0 -3.898569,41.112166 -28.707637,36.504766 z"
       id="path529"
       inkscape:label="chuck" />
    <path
       style="fill:#ff2a2a;stroke-width:0.264583"
       d="m 204.80109,42.999356 8.15155,57.060854 47.13723,0.35442 -8.86038,-60.605012 z"
       id="path619"
       inkscape:label="siroloin" />
    <path
       style="fill:#ff2a2a;stroke-width:0.264583"
       d="m 248.03975,38.746374 14.17661,81.515506 c 0,0 37.21361,18.42959 48.20048,18.78401 10.98687,0.35442 -9.2148,-23.03699 -9.2148,-23.03699 0,0 7.44272,-32.960615 7.44272,-40.403335 0,-7.44272 -9.56921,-38.631269 -30.12529,-37.922437 -20.55609,0.708829 -30.47972,1.063246 -30.47972,1.063246 z"
       id="path621"
       inkscape:label="round" />
    <path
       style="fill:#ff2a2a;stroke-width:0.264583"
       d="m 131.43713,102.1867 126.52625,-3.898565 7.44272,41.112175 -16.3031,-2.48091 c 0,0 -2.12649,-8.15155 -14.88544,-6.73389 -12.75895,1.41766 -24.45466,9.92362 -24.45466,9.92362 0,0 -44.30191,-6.02506 -51.74463,-5.31622 -7.44272,0.70883 -14.17661,0.35441 -14.17661,0.35441 z"
       id="path622"
       inkscape:label="plate" />
    <path
       style="fill:#ff2a2a;stroke-width:0.264583"
       d="m 244.4956,39.455204 -0.70883,21.264916 47.49164,-3.189737 -2.12649,-19.847255 z"
       id="path624"
       inkscape:label="picanha" />
    <path
       style="fill:#ff2a2a;stroke-width:0.264583"
       d="m 130.72829,42.999356 0.35442,59.187344 64.858,-1.06324 -9.56922,-57.769687 z"
       id="path625"
       inkscape:label="rib" />
    <path
       style="fill:#ff2a2a;stroke-width:0.264583"
       d="m 185.30825,43.353773 11.6957,59.896177 19.49284,-3.898565 -7.0883,-57.769691 z"
       id="path626"
       inkscape:label="short loin" />
    <path
       style="fill:#ff2a2a;stroke-width:0.264583"
       d="m 83.591062,100.41463 c 1.417661,0 49.618138,2.4809 49.618138,2.4809 l 12.40454,34.02387 -30.83413,3.54415 c 0,0 -18.429598,-5.31623 -18.784014,-10.98687 -0.354415,-5.67065 -9.923627,-28.70764 -12.404534,-29.06205 z"
       id="path627"
       inkscape:label="brisket" />
  </g>
</svg>
